<svg id="Layer_1" height="512" viewBox="0 0 512 512" width="512" xmlns="http://www.w3.org/2000/svg" data-name="Layer 1"><path d="m448.288 108.035a53.136 53.136 0 0 0 -13.669-2.3l-103.929-3.791v-68.944a33.037 33.037 0 0 0 -33-33h-237a33.038 33.038 0 0 0 -33 33v446a33.038 33.038 0 0 0 33 33h237a33.037 33.037 0 0 0 33-33v-267.444l104.465-3.807a51 51 0 0 0 13.133-99.714zm-150.598 387.965h-237a17.019 17.019 0 0 1 -17-17v-165.5h271v165.5a17.019 17.019 0 0 1 -17 17zm17-198.5h-271v-264.5a17.019 17.019 0 0 1 17-17h237a17.019 17.019 0 0 1 17 17v68.361l-29.25-1.067v-41.794a8 8 0 0 0 -8-8h-196.5a8 8 0 0 0 -8 8v196.5a8 8 0 0 0 8 8h196.5a8 8 0 0 0 8-8v-41.794l29.25-1.066zm-181.629-91.9a42 42 0 0 0 29.716 12.048q.845 0 1.7-.032l104.966-3.825v33.209h-180.503v-180.5h180.5v33.211l-104.966-3.826a43 43 0 0 0 -44.567 42.971v35.788a42.079 42.079 0 0 0 13.154 30.956zm334.939-44.248a34.9 34.9 0 0 1 -33.425 30.407l-270.68 9.866a27 27 0 0 1 -27.984-26.981v-35.788a27.005 27.005 0 0 1 26.815-27c.385 0 .776.006 1.17.021l270.145 9.848a37.07 37.07 0 0 1 9.548 1.605 34.9 34.9 0 0 1 24.411 38.022zm-288.81 166.202a77.2 77.2 0 1 0 77.2 77.2 77.283 77.283 0 0 0 -77.2-77.2zm0 138.391a61.2 61.2 0 1 1 61.2-61.2 61.265 61.265 0 0 1 -61.2 61.2zm50.652-80.064a8 8 0 0 1 -11.315 11.319 55.692 55.692 0 0 0 -78.673 0 8 8 0 1 1 -11.315-11.314 71.716 71.716 0 0 1 101.303-.005zm-15.213 15.211a8 8 0 1 1 -11.313 11.314 34.16 34.16 0 0 0 -48.252 0 8 8 0 0 1 -11.312-11.314 50.178 50.178 0 0 1 70.877 0zm-15.211 15.208a8 8 0 0 1 -11.318 11.318 12.606 12.606 0 0 0 -17.827 0 8 8 0 1 1 -11.31-11.318 28.639 28.639 0 0 1 40.455 0zm-12.244 20.812a8.008 8.008 0 0 1 -7.976 7.476c-.178 0-.358-.006-.539-.019a7.993 7.993 0 0 1 -7.451-8.507v-.014a8 8 0 0 1 15.965 1.064z"/></svg>