<svg id="Layer_1" viewBox="0 0 64 64" xmlns="http://www.w3.org/2000/svg" data-name="Layer 1"><path d="m61 22.06h-8.916c-.552 0-1 .447-1 1v1.12h-6.183c-2.653-4.36-7.435-7.287-12.901-7.287s-10.248 2.927-12.901 7.287h-6.183v-1.12c0-.553-.448-1-1-1h-8.916c-.552 0-1 .447-1 1v17.881c0 .553.448 1 1 1h8.916c.552 0 1-.447 1-1v-1.12h6.183c2.653 4.36 7.435 7.287 12.901 7.287s10.248-2.927 12.901-7.287h6.183v1.12c0 .553.448 1 1 1h8.916c.552 0 1-.447 1-1v-17.881c0-.553-.448-1-1-1zm-7.916 7.517h6.916v4.848h-6.916zm6.916-5.517v3.517h-6.916v-3.517zm-56 5.516h6.916v4.848h-6.916zm6.916-5.517v3.517h-6.916v-3.517zm-6.916 15.881v-3.517h6.916v3.517zm8.92-2.12v-11.641h5.142c-.751 1.792-1.169 3.758-1.169 5.82s.418 4.028 1.169 5.82h-5.142zm19.08 7.287c-7.228 0-13.107-5.88-13.107-13.107s5.88-13.107 13.107-13.107 13.107 5.88 13.107 13.107-5.88 13.107-13.107 13.107zm19.08-7.287h-5.142c.751-1.793 1.169-3.758 1.169-5.82s-.418-4.028-1.169-5.82h5.142v11.641zm2.004 2.12v-3.517h6.916v3.517z"/><path d="m32 20.958c-6.088 0-11.042 4.953-11.042 11.042s4.953 11.042 11.042 11.042 11.042-4.953 11.042-11.042-4.953-11.042-11.042-11.042zm9.042 11.042c0 1.076-.199 2.105-.546 3.063l-5.637-4.446v-7.188c3.587 1.2 6.183 4.586 6.183 8.571zm-8.183-8.998v8.101c0 .307.14.596.381.785l6.35 5.008c-.313.483-.669.933-1.066 1.347l-5.904-4.664c-.363-.287-.876-.287-1.239 0l-5.905 4.664c-.396-.414-.753-.864-1.066-1.347l6.351-5.009c.241-.189.381-.479.381-.785v-8.101c.283-.027.568-.043.858-.043s.576.017.859.044zm-3.717.427v7.189l-5.638 4.447c-.347-.959-.546-1.987-.546-3.064 0-3.986 2.596-7.372 6.184-8.572zm-2.098 16.125 4.956-3.915 4.956 3.915c-1.425.938-3.127 1.489-4.956 1.489s-3.531-.55-4.956-1.488z"/></svg>