<svg id="Capa_1" enable-background="new 0 0 512 512" height="512" viewBox="0 0 512 512" width="512" xmlns="http://www.w3.org/2000/svg"><g><path d="m31 0v512h90v-30h210v30h150v-512zm90 452v-272h90v272zm120 0v-272h90v272zm210 30h-90v-332h-270v332h-30v-452h390z"/><path d="m391 361h30v30h-30z"/><path d="m391 301h30v30h-30z"/><path d="m391 241h30v30h-30z"/><path d="m166 96.213 19.394 19.394 21.212-21.214-40.606-40.606-40.606 40.606 21.212 21.214z"/><path d="m326.606 85.607-21.212-21.214-19.394 19.394-19.394-19.394-21.212 21.214 40.606 40.606z"/></g></svg>