<svg id="Layer_1" viewBox="0 0 128 128" xmlns="http://www.w3.org/2000/svg" data-name="Layer 1"><path d="m30.58774 79.72877a3.25907 3.25907 0 0 0 4.60956-4.60848 40.74945 40.74945 0 0 1 0-57.617 3.25907 3.25907 0 0 0 -4.60956-4.60848 47.2679 47.2679 0 0 0 0 66.834z"/><path d="m104.74282 46.31177a40.42631 40.42631 0 0 1 -11.93858 28.79581l-.95638.95476v1.36219a3.25694 3.25694 0 0 0 5.64114 2.21563 47.21393 47.21393 0 0 0 -.0795-66.73636 3.259 3.259 0 0 0 -4.60526 4.61269 40.424 40.424 0 0 1 11.93858 28.79528z"/><path d="m22.236 91.34057a3.259 3.259 0 0 0 2.30424-5.56324 55.8042 55.8042 0 0 1 0-78.93113 3.25866 3.25866 0 0 0 -4.60848-4.6084 62.31985 62.31985 0 0 0 0 88.14793 3.24756 3.24756 0 0 0 2.30424.95484z"/><path d="m119.81045 46.31177a55.44563 55.44563 0 0 1 -16.34014 39.46556 3.259 3.259 0 1 0 4.60955 4.6084 62.348 62.348 0 0 0 0-88.14793 3.259 3.259 0 1 0 -4.60955 4.6084 55.44564 55.44564 0 0 1 16.34014 39.46557z"/><path d="m80.382 74.2248a32.31862 32.31862 0 0 0 6.496-5.0195l.9677-.96794v-.0327a32.38884 32.38884 0 0 0 -.85038-44.66558 3.38262 3.38262 0 0 0 -4.30858-.45383 3.26821 3.26821 0 0 0 -.41814 4.96276 25.62323 25.62323 0 0 1 7.5784 18.25748 25.68605 25.68605 0 0 1 -12.72934 22.24351l-1.05-1.80438-1.67319-6.75833a17.09407 17.09407 0 0 0 6.79126-14.40265 17.19886 17.19886 0 0 0 -34.38242.7218 17.12009 17.12009 0 0 0 6.80769 13.6809l-1.706 6.84035-1.00064 1.73883a25.72973 25.72973 0 0 1 -9.17606-9.07077 23.39373 23.39373 0 0 1 -2.6841-6.316 25.954 25.954 0 0 1 6.59261-25.06314 3.37578 3.37578 0 0 0 .408-4.32926 3.25862 3.25862 0 0 0 -4.93365-.36423 32.41467 32.41467 0 0 0 0 45.78316 32.96671 32.96671 0 0 0 6.5125 5.036l-27.45666 47.55459a3.28077 3.28077 0 0 0 2.84117 4.92117h82.00483a3.28081 3.28081 0 0 0 2.84109-4.92148zm-51.68847 45.93073 17.4702-30.26506 17.84727-30.90477 17.78177 30.80636 17.5356 30.36347z"/><path d="m64.011 99.89a3.81651 3.81651 0 0 0 3.80558-3.52881l1.23517-16.33589a5.0551 5.0551 0 1 0 -10.08144 0l1.23483 16.33593a3.81669 3.81669 0 0 0 3.80586 3.52877z"/><circle cx="64.011" cy="110.226" r="5.726"/></svg>