<?xml version="1.0" encoding="UTF-8"?>
<svg xmlns="http://www.w3.org/2000/svg" xmlns:xlink="http://www.w3.org/1999/xlink" version="1.1" id="Capa_1" x="0px" y="0px" viewBox="0 0 512.013 512.013" style="enable-background:new 0 0 512.013 512.013;" xml:space="preserve" width="512" height="512">
<g>
	<polyline style="fill:none;stroke:#000000;stroke-width:30;stroke-miterlimit:10;" points="374.818,378.881 159.666,286.173 &#10;&#9;&#9;159.666,124.217 374.818,31.51 &#9;"/>
	<path style="fill:none;stroke:#000000;stroke-width:30;stroke-miterlimit:10;" d="M159.666,286.173H95.985&#10;&#9;&#9;c-44.723,0-80.978-36.255-80.978-80.978v0c0-44.723,36.255-80.978,80.978-80.978h63.681"/>
	<polyline style="fill:none;stroke:#000000;stroke-width:30;stroke-miterlimit:10;" points="99.227,286.173 99.227,497.013 &#10;&#9;&#9;183.729,497.013 183.729,457.011 159.666,432.009 159.666,286.173 &#9;"/>
	<polyline style="fill:none;stroke:#000000;stroke-width:30;stroke-miterlimit:10;" points="374.818,249.489 430.66,229.487 &#10;&#9;&#9;430.66,180.903 374.818,160.902 &#9;"/>
	<line style="fill:none;stroke:#000000;stroke-width:30;stroke-miterlimit:10;" x1="374.818" y1="0" x2="374.818" y2="410.391"/>
	
		<line style="fill:none;stroke:#000000;stroke-width:30;stroke-miterlimit:10;" x1="314.814" y1="57.365" x2="314.814" y2="353.025"/>
	
		<line style="fill:none;stroke:#000000;stroke-width:30;stroke-miterlimit:10;" x1="159.666" y1="370.388" x2="198.73" y2="370.388"/>
	
		<line style="fill:none;stroke:#000000;stroke-width:30;stroke-miterlimit:10;" x1="474.339" y1="205.195" x2="512.006" y2="205.195"/>
	
		<line style="fill:none;stroke:#000000;stroke-width:30;stroke-miterlimit:10;" x1="445.19" y1="275.568" x2="471.825" y2="302.202"/>
	
		<line style="fill:none;stroke:#000000;stroke-width:30;stroke-miterlimit:10;" x1="445.19" y1="134.823" x2="471.825" y2="108.188"/>
</g>















</svg>
