<?xml version="1.0"?>
<svg xmlns="http://www.w3.org/2000/svg" viewBox="0 0 64 64"><g data-name="23 Kiln" id="_23_Kiln"><g><g><path d="M62.929,4.7a2.983,2.983,0,0,0-2.451-.656l-17,3A3,3,0,0,0,41,10a1,1,0,0,0,2,0,1,1,0,0,1,.826-.985l17-3A1,1,0,0,1,62,7V56a1,1,0,0,1-.358.767,1.012,1.012,0,0,1-.816.218l-17-3A1,1,0,0,1,43,53V13a1,1,0,0,0-2,0v2H39V10a3,3,0,0,0-3-3H3a3,3,0,0,0-3,3V53a3,3,0,0,0,3,3H36a3,3,0,0,0,3-3,1,1,0,0,0-2,0,1,1,0,0,1-1,1H3a1,1,0,0,1-1-1V10A1,1,0,0,1,3,9H36a1,1,0,0,1,1,1V50a1,1,0,0,0,2,0V49h2v4a3,3,0,0,0,2.478,2.954l17,3A3,3,0,0,0,64,56V7A2.992,2.992,0,0,0,62.929,4.7ZM41,34H39V30h2Zm0-6H39V23h2Zm-2,8h2v5H39Zm2-19v4H39V17ZM39,47V43h2v4Z"/><path d="M5,11a1,1,0,0,0-1,1V51a1,1,0,0,0,1,1H34a1,1,0,0,0,1-1V12a1,1,0,0,0-1-1ZM33,50H6V13H33Z"/></g><path d="M19,48a3,3,0,0,1-3-3c0-1.278,1.522-3.62,2.177-4.568a1.038,1.038,0,0,1,1.646,0C20.477,41.38,22,43.722,22,45A3,3,0,0,1,19,48Zm0-5.147A7.47,7.47,0,0,0,18,45a1,1,0,0,0,2,0A7.457,7.457,0,0,0,19,42.853Z"/><path d="M24,48a1,1,0,0,1-.71-1.7A6.707,6.707,0,0,0,25,42c0-2.188-1.414-3.487-3.05-4.992a13.3,13.3,0,0,1-3.372-4.1,18.544,18.544,0,0,0-1.7,4.834c-.147.579-.288,1.134-.434,1.639a1,1,0,0,1-1.79.281,4.608,4.608,0,0,0-.877-.918c-.074.309-.159.6-.244.9A10.752,10.752,0,0,0,13,43a3.394,3.394,0,0,0,1.46,3.112,1.007,1.007,0,0,1,.42,1.345.992.992,0,0,1-1.327.438A5.318,5.318,0,0,1,11,43a12.792,12.792,0,0,1,.615-3.915A7.037,7.037,0,0,0,12,37a1,1,0,0,1,1.478-.878,10.636,10.636,0,0,1,1.5,1.012c.674-2.651,1.453-5.62,3.472-6.966a1,1,0,0,1,1.535.636c.411,2.053,1.826,3.354,3.324,4.731C25.121,37.206,27,38.935,27,42a8.646,8.646,0,0,1-2.293,5.707A1,1,0,0,1,24,48Z"/><path d="M12,19H9a1,1,0,0,1,0-2h3a1,1,0,0,1,0,2Z"/><path d="M12,25H9a1,1,0,0,1,0-2h3a1,1,0,0,1,0,2Z"/><path d="M12,31H9a1,1,0,0,1,0-2h3a1,1,0,0,1,0,2Z"/><path d="M30,19H27a1,1,0,0,1,0-2h3a1,1,0,0,1,0,2Z"/><path d="M30,25H27a1,1,0,0,1,0-2h3a1,1,0,0,1,0,2Z"/><path d="M30,31H27a1,1,0,0,1,0-2h3a1,1,0,0,1,0,2Z"/><path d="M59,55a1,1,0,0,1-1-1V9a1,1,0,0,1,2,0V54A1,1,0,0,1,59,55Z"/></g></g></svg>
