<svg id="Capa_1" enable-background="new 0 0 512 512" height="512" viewBox="0 0 512 512" width="512" xmlns="http://www.w3.org/2000/svg"><path d="m206.524 172.624c4.143 0 7.5-3.357 7.5-7.5v-89.636c0-4.143-3.357-7.5-7.5-7.5-11.955 0-81.678 0-95.244 0-4.143 0-7.5 3.357-7.5 7.5v89.636c0 4.143 3.357 7.5 7.5 7.5zm-61.893-15v-29.818h28.54v29.818zm54.393 0h-10.853v-74.636h10.853zm-25.853-74.636v29.817h-28.54v-29.817zm-54.391 0h10.852v74.636h-10.852z"/><path d="m448.372 206.167h-42.744c-4.143 0-7.5 3.357-7.5 7.5s3.357 7.5 7.5 7.5h42.744c5.394 0 9.781 4.388 9.781 9.78 0 5.394-4.388 9.781-9.781 9.781-5.916 0-164.395 0-174.44 0 2.46-6.246 2.779-13.145.956-19.562h105.74c4.143 0 7.5-3.357 7.5-7.5s-3.357-7.5-7.5-7.5h-115.313l-16.539-16.539 7.668-10.287c.965-1.295 1.486-2.867 1.486-4.482 0-34.224 0-129.662 0-167.358 0-4.143-3.357-7.5-7.5-7.5h-180.809c-16.969 0-30.774 13.805-30.774 30.773v4.611c0 4.143 3.357 7.5 7.5 7.5h13.526v36.643c0 4.143 3.357 7.5 7.5 7.5s7.5-3.357 7.5-7.5v-36.642h168.057v129.486c-5.799 7.779-47.436 63.638-57.685 77.388-.965 1.295-1.486 2.867-1.486 4.482v144.975c0 1.615.521 3.188 1.486 4.482l57.685 77.387v15.915h-168.056v-392.473c0-4.143-3.357-7.5-7.5-7.5s-7.5 3.357-7.5 7.5v399.973c0 4.143 3.357 7.5 7.5 7.5h183.056c4.143 0 7.5-3.357 7.5-7.5v-25.902c0-1.615-.521-3.188-1.486-4.482l-57.685-77.387v-140l6.442-8.642 10.938 10.938c5.935 5.934 13.73 8.901 21.525 8.901 1.434 0 2.867-.102 4.29-.303l63.702 63.702c4.831 4.831 11.178 7.246 17.523 7.246s12.692-2.416 17.523-7.247c9.661-9.662 9.661-25.383 0-35.045l-40.549-40.55h148.218c13.664 0 24.781-11.117 24.781-24.781s-11.116-24.781-24.78-24.781zm-380.998-178.282h-13.262c1.361-7.323 7.798-12.885 15.509-12.885h173.31v12.885zm146.887 208.047 20.656-27.712 4.799-6.438 16.832 16.833c.046.046.085.098.131.145.03.032.052.068.082.1 5.741 5.983 5.71 15.669-.213 21.592-8.065 8.065-9.619 10.285-14.175 11.739-5.331 1.699-11.406.45-15.627-3.773zm115.834 70.954c3.813 3.813 3.813 10.018 0 13.831-3.813 3.814-10.02 3.814-13.832 0l-59.509-59.508c2.64-2.186 3.019-2.875 5.731-5.48h16.454z"/></svg>